<!-- Generated by IcoMoon.io -->
<svg version="1.1" xmlns="http://www.w3.org/2000/svg" width="32" height="32" viewBox="0 0 32 32">
<path fill="#fad34f" d="M22.652 25.252c5.271-3.717 6.615-10.884 3.002-16.007s-10.815-6.263-16.086-2.546-6.615 10.884-3.002 16.007c3.613 5.123 10.815 6.263 16.086 2.546z"></path>
<path fill="#fff" d="M15.119 10.787c0.244 0.346-0.14 0.378-0.496 0.63s-0.549 0.627-0.794 0.28c-0.245-0.347-0.153-0.831 0.203-1.082s0.843-0.175 1.087 0.172z"></path>
<path fill="#fff" d="M17.584 9.048c0.244 0.346-0.14 0.378-0.496 0.63s-0.549 0.627-0.794 0.28c-0.245-0.347-0.153-0.831 0.203-1.082s0.843-0.175 1.087 0.172z"></path>
<path fill="#fff" d="M18.107 11.090c0.477 0.677 0.3 1.623-0.396 2.114s-1.647 0.34-2.124-0.336c-0.477-0.677 0.598-0.351 1.294-0.842s0.75-1.612 1.227-0.936z"></path>
</svg>
